<?xml version="1.0" encoding="UTF-8" standalone="no"?>
<svg xmlns:dc="http://purl.org/dc/elements/1.1/" xmlns:cc="http://creativecommons.org/ns#" xmlns:rdf="http://www.w3.org/1999/02/22-rdf-syntax-ns#" xmlns:svg="http://www.w3.org/2000/svg" xmlns="http://www.w3.org/2000/svg" viewBox="0 0 1056 816" height="816" width="1056" xml:space="preserve" id="svg2" version="1.1">
  <defs id="defs6"/>
  <g transform="matrix(1.3333333,0,0,-1.3333333,0,816)" id="g10">
    <g transform="translate(199.7441,558.3232)" id="g12">
      <path id="path14" style="fill:#c8c7c7;fill-opacity:1;fill-rule:nonzero;stroke:none" d="M 0,0 H 406.351 L 416.675,-419.251 198.663,-536.644 -24.511,-416.675 Z"/>
    </g>
    <g transform="translate(199.7441,558.3232)" id="g16">
      <path id="path18" style="fill:none;stroke:#8d8d8d;stroke-width:0.75;stroke-linecap:butt;stroke-linejoin:miter;stroke-miterlimit:10;stroke-dasharray:none;stroke-opacity:1" d="M 0,0 H 406.351 L 416.675,-419.251 198.663,-536.644 -24.511,-416.675 Z"/>
    </g>
    <g transform="translate(216.5117,541.5557)" id="g20">
      <path id="path22" style="fill:#e9e9e9;fill-opacity:1;fill-rule:nonzero;stroke:none" d="m 0,0 h 175.443 l -2.581,-174.152 -179.31,1.29 z"/>
    </g>
    <g transform="translate(216.5117,541.5557)" id="g24">
      <path id="path26" style="fill:none;stroke:#8d8d8d;stroke-width:0.75;stroke-linecap:butt;stroke-linejoin:miter;stroke-miterlimit:10;stroke-dasharray:none;stroke-opacity:1" d="m 0,0 h 175.443 l -2.581,-174.152 -179.31,1.29 z"/>
    </g>
    <g transform="translate(412.5937,541.5557)" id="g28">
      <path id="path30" style="fill:#e9e9e9;fill-opacity:1;fill-rule:nonzero;stroke:none" d="m 0,0 174.152,1.291 5.162,-176.734 -181.89,2.581 z"/>
    </g>
    <g transform="translate(412.5937,541.5557)" id="g32">
      <path id="path34" style="fill:none;stroke:#8d8d8d;stroke-width:0.75;stroke-linecap:butt;stroke-linejoin:miter;stroke-miterlimit:10;stroke-dasharray:none;stroke-opacity:1" d="m 0,0 174.152,1.291 5.162,-176.734 -181.89,2.581 z"/>
    </g>
    <g transform="translate(598.3564,145.5195)" id="g36">
      <path id="path38" style="fill:#e9e9e9;fill-opacity:1;fill-rule:nonzero;stroke:none" d="M 0,0 -190.92,-98.038 V 201.245 L -3.872,199.954 Z"/>
    </g>
    <g transform="translate(598.3564,145.5195)" id="g40">
      <path id="path42" style="fill:none;stroke:#8d8d8d;stroke-width:0.75;stroke-linecap:butt;stroke-linejoin:miter;stroke-miterlimit:10;stroke-dasharray:none;stroke-opacity:1" d="M 0,0 -190.92,-98.038 V 201.245 L -3.872,199.954 Z"/>
    </g>
    <g transform="translate(386.7969,47.4814)" id="g44">
      <path id="path46" style="fill:#e9e9e9;fill-opacity:1;fill-rule:nonzero;stroke:none" d="m 0,0 -187.053,98.038 2.581,200.597 185.758,1.938 z"/>
    </g>
    <g transform="translate(386.7969,47.4814)" id="g48">
      <path id="path50" style="fill:none;stroke:#8d8d8d;stroke-width:0.75;stroke-linecap:butt;stroke-linejoin:miter;stroke-miterlimit:10;stroke-dasharray:none;stroke-opacity:1" d="m 0,0 -187.053,98.038 2.581,200.597 185.758,1.938 z"/>
    </g>
    <g transform="translate(235.8652,589.9297)" id="g52">
      <path id="path54" style="fill:#3c5ea9;fill-opacity:1;fill-rule:nonzero;stroke:none" d="M 0,0 21.282,-10.967 78.69,-70.952 v -42.569 L 11.61,-45.15 Z"/>
    </g>
    <g transform="translate(235.8652,589.9297)" id="g56">
      <path id="path58" style="fill:none;stroke:#8d8d8d;stroke-width:0.75;stroke-linecap:butt;stroke-linejoin:miter;stroke-miterlimit:10;stroke-dasharray:none;stroke-opacity:1" d="M 0,0 21.282,-10.967 78.69,-70.952 v -42.569 L 11.61,-45.15 Z"/>
    </g>
    <g transform="translate(324.875,508.6587)" id="g60">
      <path id="path62" style="fill:#3c5ea9;fill-opacity:1;fill-rule:nonzero;stroke:none" d="M 0,0 70.304,-67.728 45.793,-88.367 0,-41.279 Z"/>
    </g>
    <g transform="translate(324.875,508.6587)" id="g64">
      <path id="path66" style="fill:none;stroke:#8d8d8d;stroke-width:0.75;stroke-linecap:butt;stroke-linejoin:miter;stroke-miterlimit:10;stroke-dasharray:none;stroke-opacity:1" d="M 0,0 70.304,-67.728 45.793,-88.367 0,-41.279 Z"/>
    </g>
    <g transform="translate(213.2876,533.1694)" id="g68">
      <path id="path70" style="fill:#3c5ea9;fill-opacity:1;fill-rule:nonzero;stroke:none" d="m 0,0 30.316,-15.482 49.664,-43.212 2.582,-42.574 -58.694,43.86 z"/>
    </g>
    <g transform="translate(213.2876,533.1694)" id="g72">
      <path id="path74" style="fill:none;stroke:#8d8d8d;stroke-width:0.75;stroke-linecap:butt;stroke-linejoin:miter;stroke-miterlimit:10;stroke-dasharray:none;stroke-opacity:1" d="m 0,0 30.316,-15.482 49.664,-43.212 2.582,-42.574 -58.694,43.86 z"/>
    </g>
    <g transform="translate(301.6543,469.3135)" id="g76">
      <path id="path78" style="fill:#3c5ea9;fill-opacity:1;fill-rule:nonzero;stroke:none" d="m 0,0 3.872,-43.217 38.054,-32.249 19.349,21.93 z"/>
    </g>
    <g transform="translate(301.6543,469.3135)" id="g80">
      <path id="path82" style="fill:none;stroke:#8d8d8d;stroke-width:0.75;stroke-linecap:butt;stroke-linejoin:miter;stroke-miterlimit:10;stroke-dasharray:none;stroke-opacity:1" d="m 0,0 3.872,-43.217 38.054,-32.249 19.349,21.93 z"/>
    </g>
    <g transform="translate(202.3252,468.6709)" id="g84">
      <path id="path86" style="fill:#3c5ea9;fill-opacity:1;fill-rule:nonzero;stroke:none" d="M 0,0 26.444,-3.229 79.333,-43.217 86.429,-83.853 23.22,-36.769 Z"/>
    </g>
    <g transform="translate(202.3252,468.6709)" id="g88">
      <path id="path90" style="fill:none;stroke:#8d8d8d;stroke-width:0.75;stroke-linecap:butt;stroke-linejoin:miter;stroke-miterlimit:10;stroke-dasharray:none;stroke-opacity:1" d="M 0,0 26.444,-3.229 79.333,-43.217 86.429,-83.853 23.22,-36.769 Z"/>
    </g>
    <g transform="translate(293.2681,417.7109)" id="g92">
      <path id="path94" style="fill:#3c5ea9;fill-opacity:1;fill-rule:nonzero;stroke:none" d="M 0,0 47.088,-32.893 45.798,-67.08 6.453,-41.278 Z"/>
    </g>
    <g transform="translate(293.2681,417.7109)" id="g96">
      <path id="path98" style="fill:none;stroke:#8d8d8d;stroke-width:0.75;stroke-linecap:butt;stroke-linejoin:miter;stroke-miterlimit:10;stroke-dasharray:none;stroke-opacity:1" d="M 0,0 47.088,-32.893 45.798,-67.08 6.453,-41.278 Z"/>
    </g>
    <g transform="translate(351.3188,386.752)" id="g100">
      <path id="path102" style="fill:#ffffff;fill-opacity:1;fill-rule:nonzero;stroke:none" d="M 0,0 56.76,52.894 52.893,9.029 -3.224,-50.308 Z"/>
    </g>
    <g transform="translate(351.3188,386.752)" id="g104">
      <path id="path106" style="fill:none;stroke:#8d8d8d;stroke-width:0.75;stroke-linecap:butt;stroke-linejoin:miter;stroke-miterlimit:10;stroke-dasharray:none;stroke-opacity:1" d="M 0,0 56.76,52.894 52.893,9.029 -3.224,-50.308 Z"/>
    </g>
    <g transform="translate(417.7559,449.3174)" id="g108">
      <path id="path110" style="fill:#ffffff;fill-opacity:1;fill-rule:nonzero;stroke:none" d="M 0,0 61.918,58.698 60.632,13.548 -1.934,-39.988 Z"/>
    </g>
    <g transform="translate(417.7559,449.3174)" id="g112">
      <path id="path114" style="fill:none;stroke:#8d8d8d;stroke-width:0.75;stroke-linecap:butt;stroke-linejoin:miter;stroke-miterlimit:10;stroke-dasharray:none;stroke-opacity:1" d="M 0,0 61.918,58.698 60.632,13.548 -1.934,-39.988 Z"/>
    </g>
    <g transform="translate(488.0596,519.626)" id="g116">
      <path id="path118" style="fill:#ffffff;fill-opacity:1;fill-rule:nonzero;stroke:none" d="M 0,0 V -43.217 L 58.051,6.448 79.338,65.789 49.665,50.955 Z"/>
    </g>
    <g transform="translate(488.0596,519.626)" id="g120">
      <path id="path122" style="fill:none;stroke:#8d8d8d;stroke-width:0.75;stroke-linecap:butt;stroke-linejoin:miter;stroke-miterlimit:10;stroke-dasharray:none;stroke-opacity:1" d="M 0,0 V -43.217 L 58.051,6.448 79.338,65.789 49.665,50.955 Z"/>
    </g>
    <g transform="translate(346.8047,322.896)" id="g124">
      <path id="path126" style="fill:#ffffff;fill-opacity:1;fill-rule:nonzero;stroke:none" d="m 0,0 0.647,-38.054 64.499,63.213 3.872,43.212 z"/>
    </g>
    <g transform="translate(346.8047,322.896)" id="g128">
      <path id="path130" style="fill:none;stroke:#8d8d8d;stroke-width:0.75;stroke-linecap:butt;stroke-linejoin:miter;stroke-miterlimit:10;stroke-dasharray:none;stroke-opacity:1" d="m 0,0 0.647,-38.054 64.499,63.213 3.872,43.212 z"/>
    </g>
    <g transform="translate(426.7852,400.9434)" id="g132">
      <path id="path134" style="fill:#ffffff;fill-opacity:1;fill-rule:nonzero;stroke:none" d="M 0,0 -5.157,-38.702 67.08,21.287 71.594,64.499 Z"/>
    </g>
    <g transform="translate(426.7852,400.9434)" id="g136">
      <path id="path138" style="fill:none;stroke:#8d8d8d;stroke-width:0.75;stroke-linecap:butt;stroke-linejoin:miter;stroke-miterlimit:10;stroke-dasharray:none;stroke-opacity:1" d="M 0,0 -5.157,-38.702 67.08,21.287 71.594,64.499 Z"/>
    </g>
    <g transform="translate(507.4131,474.4756)" id="g140">
      <path id="path142" style="fill:#ffffff;fill-opacity:1;fill-rule:nonzero;stroke:none" d="M 0,0 -5.162,-45.155 57.403,-2.581 86.429,58.694 50.955,39.345 Z"/>
    </g>
    <g transform="translate(507.4131,474.4756)" id="g144">
      <path id="path146" style="fill:none;stroke:#8d8d8d;stroke-width:0.75;stroke-linecap:butt;stroke-linejoin:miter;stroke-miterlimit:10;stroke-dasharray:none;stroke-opacity:1" d="M 0,0 -5.162,-45.155 57.403,-2.581 86.429,58.694 50.955,39.345 Z"/>
    </g>
    <g transform="translate(518.376,425.4541)" id="g148">
      <path id="path150" style="fill:#ffffff;fill-opacity:1;fill-rule:nonzero;stroke:none" d="M 0,0 44.507,31.606 83.204,41.278 43.859,-10.967 -5.806,-42.574 Z"/>
    </g>
    <g transform="translate(518.376,425.4541)" id="g152">
      <path id="path154" style="fill:none;stroke:#8d8d8d;stroke-width:0.75;stroke-linecap:butt;stroke-linejoin:miter;stroke-miterlimit:10;stroke-dasharray:none;stroke-opacity:1" d="M 0,0 44.507,31.606 83.204,41.278 43.859,-10.967 -5.806,-42.574 Z"/>
    </g>
    <g transform="translate(430.0088,352.5693)" id="g156">
      <path id="path158" style="fill:#ffffff;fill-opacity:1;fill-rule:nonzero;stroke:none" d="M 0,0 75.466,63.855 70.952,25.153 -6.448,-37.412 Z"/>
    </g>
    <g transform="translate(430.0088,352.5693)" id="g160">
      <path id="path162" style="fill:none;stroke:#8d8d8d;stroke-width:0.75;stroke-linecap:butt;stroke-linejoin:miter;stroke-miterlimit:10;stroke-dasharray:none;stroke-opacity:1" d="M 0,0 75.466,63.855 70.952,25.153 -6.448,-37.412 Z"/>
    </g>
    <g transform="translate(206.8398,417.7109)" id="g164">
      <path id="path166" style="fill:#3c5ea9;fill-opacity:1;fill-rule:nonzero;stroke:none" d="m 0,0 28.377,-10.32 42.574,-38.054 10.32,-42.569 -56.76,45.15 z"/>
    </g>
    <g transform="translate(206.8398,417.7109)" id="g168">
      <path id="path170" style="fill:none;stroke:#8d8d8d;stroke-width:0.75;stroke-linecap:butt;stroke-linejoin:miter;stroke-miterlimit:10;stroke-dasharray:none;stroke-opacity:1" d="m 0,0 28.377,-10.32 42.574,-38.054 10.32,-42.569 -56.76,45.15 z"/>
    </g>
    <g transform="translate(286.8203,368.0459)" id="g172">
      <path id="path174" style="fill:#3c5ea9;fill-opacity:1;fill-rule:nonzero;stroke:none" d="m 0,0 10.319,-40.635 38.055,-25.154 v 36.121 z"/>
    </g>
    <g transform="translate(286.8203,368.0459)" id="g176">
      <path id="path178" style="fill:none;stroke:#8d8d8d;stroke-width:0.75;stroke-linecap:butt;stroke-linejoin:miter;stroke-miterlimit:10;stroke-dasharray:none;stroke-opacity:1" d="m 0,0 10.319,-40.635 38.055,-25.154 v 36.121 z"/>
    </g>
    <g transform="translate(344.8711,271.2979)" id="g180">
      <path id="path182" style="fill:#ffffff;fill-opacity:1;fill-rule:nonzero;stroke:none" d="M 0,0 70.951,67.08 65.146,32.893 -4.515,-38.055 Z"/>
    </g>
    <g transform="translate(344.8711,271.2979)" id="g184">
      <path id="path186" style="fill:none;stroke:#8d8d8d;stroke-width:0.75;stroke-linecap:butt;stroke-linejoin:miter;stroke-miterlimit:10;stroke-dasharray:none;stroke-opacity:1" d="M 0,0 70.951,67.08 65.146,32.893 -4.515,-38.055 Z"/>
    </g>
    <g transform="translate(293.2681,305.481)" id="g188">
      <path id="path190" style="fill:#3c5ea9;fill-opacity:1;fill-rule:nonzero;stroke:none" d="M 0,0 39.993,-17.416 39.345,-53.537 9.677,-39.988 Z"/>
    </g>
    <g transform="translate(293.2681,305.481)" id="g192">
      <path id="path194" style="fill:none;stroke:#8d8d8d;stroke-width:0.75;stroke-linecap:butt;stroke-linejoin:miter;stroke-miterlimit:10;stroke-dasharray:none;stroke-opacity:1" d="M 0,0 39.993,-17.416 39.345,-53.537 9.677,-39.988 Z"/>
    </g>
    <g transform="translate(278.4341,313.8672)" id="g196">
      <path id="path198" style="fill:#3c5ea9;fill-opacity:1;fill-rule:nonzero;stroke:none" d="m 0,0 12.253,-43.217 -63.208,34.188 -25.154,41.278 h 30.311 z"/>
    </g>
    <g transform="translate(278.4341,313.8672)" id="g200">
      <path id="path202" style="fill:none;stroke:#8d8d8d;stroke-width:0.75;stroke-linecap:butt;stroke-linejoin:miter;stroke-miterlimit:10;stroke-dasharray:none;stroke-opacity:1" d="m 0,0 12.253,-43.217 -63.208,34.188 -25.154,41.278 h 30.311 z"/>
    </g>
    <g transform="translate(293.916,251.3018)" id="g204">
      <path id="path206" style="fill:#3c5ea9;fill-opacity:1;fill-rule:nonzero;stroke:none" d="m 0,0 38.054,-17.415 -1.29,-30.316 -22.577,10.32 z"/>
    </g>
    <g transform="translate(293.916,251.3018)" id="g208">
      <path id="path210" style="fill:none;stroke:#8d8d8d;stroke-width:0.75;stroke-linecap:butt;stroke-linejoin:miter;stroke-miterlimit:10;stroke-dasharray:none;stroke-opacity:1" d="m 0,0 38.054,-17.415 -1.29,-30.316 -22.577,10.32 z"/>
    </g>
    <g transform="translate(213.9355,284.8418)" id="g212">
      <path id="path214" style="fill:#3c5ea9;fill-opacity:1;fill-rule:nonzero;stroke:none" d="M 0,0 12.9,0.643 65.789,-25.154 81.271,-66.438 23.22,-35.474 Z"/>
    </g>
    <g transform="translate(213.9355,284.8418)" id="g216">
      <path id="path218" style="fill:none;stroke:#8d8d8d;stroke-width:0.75;stroke-linecap:butt;stroke-linejoin:miter;stroke-miterlimit:10;stroke-dasharray:none;stroke-opacity:1" d="M 0,0 12.9,0.643 65.789,-25.154 81.271,-66.438 23.22,-35.474 Z"/>
    </g>
    <g transform="translate(339.0659,217.1191)" id="g220">
      <path id="path222" style="fill:#ffffff;fill-opacity:1;fill-rule:nonzero;stroke:none" d="M 0,0 85.786,84.495 77.4,49.017 -2.581,-23.868 Z"/>
    </g>
    <g transform="translate(339.0659,217.1191)" id="g224">
      <path id="path226" style="fill:none;stroke:#8d8d8d;stroke-width:0.75;stroke-linecap:butt;stroke-linejoin:miter;stroke-miterlimit:10;stroke-dasharray:none;stroke-opacity:1" d="M 0,0 85.786,84.495 77.4,49.017 -2.581,-23.868 Z"/>
    </g>
    <g transform="translate(444.2002,319.0293)" id="g228">
      <path id="path230" style="fill:#ffffff;fill-opacity:1;fill-rule:nonzero;stroke:none" d="m 0,0 -14.191,-43.864 67.08,41.926 16.13,50.955 z"/>
    </g>
    <g transform="translate(444.2002,319.0293)" id="g232">
      <path id="path234" style="fill:none;stroke:#8d8d8d;stroke-width:0.75;stroke-linecap:butt;stroke-linejoin:miter;stroke-miterlimit:10;stroke-dasharray:none;stroke-opacity:1" d="m 0,0 -14.191,-43.864 67.08,41.926 16.13,50.955 z"/>
    </g>
    <g transform="translate(524.8281,374.499)" id="g236">
      <path id="path238" style="fill:#ffffff;fill-opacity:1;fill-rule:nonzero;stroke:none" d="M 0,0 36.117,26.444 76.752,39.345 45.15,-12.258 -8.386,-45.15 Z"/>
    </g>
    <g transform="translate(524.8281,374.499)" id="g240">
      <path id="path242" style="fill:none;stroke:#8d8d8d;stroke-width:0.75;stroke-linecap:butt;stroke-linejoin:miter;stroke-miterlimit:10;stroke-dasharray:none;stroke-opacity:1" d="M 0,0 36.117,26.444 76.752,39.345 45.15,-12.258 -8.386,-45.15 Z"/>
    </g>
    <g transform="translate(522.8906,313.2241)" id="g244">
      <path id="path246" style="fill:#ffffff;fill-opacity:1;fill-rule:nonzero;stroke:none" d="M 0,0 58.698,29.668 82.562,30.311 41.283,-19.997 -14.191,-43.216 Z"/>
    </g>
    <g transform="translate(522.8906,313.2241)" id="g248">
      <path id="path250" style="fill:none;stroke:#8d8d8d;stroke-width:0.75;stroke-linecap:butt;stroke-linejoin:miter;stroke-miterlimit:10;stroke-dasharray:none;stroke-opacity:1" d="M 0,0 58.698,29.668 82.562,30.311 41.283,-19.997 -14.191,-43.216 Z"/>
    </g>
    <g transform="translate(509.3467,308.7051)" id="g252">
      <path id="path254" style="fill:#ffffff;fill-opacity:1;fill-rule:nonzero;stroke:none" d="m 0,0 -12.9,-45.15 -67.728,-38.698 11.609,39.345 z"/>
    </g>
    <g transform="translate(509.3467,308.7051)" id="g256">
      <path id="path258" style="fill:none;stroke:#8d8d8d;stroke-width:0.75;stroke-linecap:butt;stroke-linejoin:miter;stroke-miterlimit:10;stroke-dasharray:none;stroke-opacity:1" d="m 0,0 -12.9,-45.15 -67.728,-38.698 11.609,39.345 z"/>
    </g>
    <g transform="translate(336.4849,184.2217)" id="g260">
      <path id="path262" style="fill:#ffffff;fill-opacity:1;fill-rule:nonzero;stroke:none" d="m 0,0 89.009,69.661 -12.9,-39.345 -78.69,-49.67 z"/>
    </g>
    <g transform="translate(336.4849,184.2217)" id="g264">
      <path id="path266" style="fill:none;stroke:#8d8d8d;stroke-width:0.75;stroke-linecap:butt;stroke-linejoin:miter;stroke-miterlimit:10;stroke-dasharray:none;stroke-opacity:1" d="m 0,0 89.009,69.661 -12.9,-39.345 -78.69,-49.67 z"/>
    </g>
    <g transform="translate(330.0322,147.458)" id="g268">
      <path id="path270" style="fill:#ffffff;fill-opacity:1;fill-rule:nonzero;stroke:none" d="M 0,0 90.305,59.984 73.532,23.22 -3.867,-16.772 Z"/>
    </g>
    <g transform="translate(330.0322,147.458)" id="g272">
      <path id="path274" style="fill:none;stroke:#8d8d8d;stroke-width:0.75;stroke-linecap:butt;stroke-linejoin:miter;stroke-miterlimit:10;stroke-dasharray:none;stroke-opacity:1" d="M 0,0 90.305,59.984 73.532,23.22 -3.867,-16.772 Z"/>
    </g>
    <g transform="translate(438.8271,218.6211)" id="g276">
      <path id="path278" style="fill:#ffffff;fill-opacity:1;fill-rule:nonzero;stroke:none" d="M 0,0 68.802,31.39 45.581,-12.901 -18.49,-37.844 Z"/>
    </g>
    <g transform="translate(438.8271,218.6211)" id="g280">
      <path id="path282" style="fill:none;stroke:#8d8d8d;stroke-width:0.75;stroke-linecap:butt;stroke-linejoin:miter;stroke-miterlimit:10;stroke-dasharray:none;stroke-opacity:1" d="M 0,0 68.802,31.39 45.581,-12.901 -18.49,-37.844 Z"/>
    </g>
    <g transform="translate(520.5293,256.459)" id="g284">
      <path id="path286" style="fill:#ffffff;fill-opacity:1;fill-rule:nonzero;stroke:none" d="M 0,0 -18.062,-40.42 26.656,-23.647 68.371,25.375 44.292,22.361 Z"/>
    </g>
    <g transform="translate(520.5293,256.459)" id="g288">
      <path id="path290" style="fill:none;stroke:#8d8d8d;stroke-width:0.75;stroke-linecap:butt;stroke-linejoin:miter;stroke-miterlimit:10;stroke-dasharray:none;stroke-opacity:1" d="M 0,0 -18.062,-40.42 26.656,-23.647 68.371,25.375 44.292,22.361 Z"/>
    </g>
    <g transform="translate(509.7783,206.5781)" id="g292">
      <path id="path294" style="fill:#ffffff;fill-opacity:1;fill-rule:nonzero;stroke:none" d="M 0,0 -16.341,-37.838 23.221,-22.361 72.237,19.354 41.71,16.772 Z"/>
    </g>
    <g transform="translate(509.7783,206.5781)" id="g296">
      <path id="path298" style="fill:none;stroke:#8d8d8d;stroke-width:0.75;stroke-linecap:butt;stroke-linejoin:miter;stroke-miterlimit:10;stroke-dasharray:none;stroke-opacity:1" d="M 0,0 -16.341,-37.838 23.221,-22.361 72.237,19.354 41.71,16.772 Z"/>
    </g>
    <g transform="translate(494.2969,200.1309)" id="g300">
      <path id="path302" style="fill:#ffffff;fill-opacity:1;fill-rule:nonzero;stroke:none" d="m 0,0 -22.357,-39.993 -68.802,-28.378 20.639,38.27 z"/>
    </g>
    <g transform="translate(494.2969,200.1309)" id="g304">
      <path id="path306" style="fill:none;stroke:#8d8d8d;stroke-width:0.75;stroke-linecap:butt;stroke-linejoin:miter;stroke-miterlimit:10;stroke-dasharray:none;stroke-opacity:1" d="m 0,0 -22.357,-39.993 -68.802,-28.378 20.639,38.27 z"/>
    </g>
    <g transform="translate(408.2949,160.5703)" id="g308">
      <path id="path310" style="fill:#ffffff;fill-opacity:1;fill-rule:nonzero;stroke:none" d="m 0,0 -21.498,-32.682 -76.541,-35.689 9.889,24.511 z"/>
    </g>
    <g transform="translate(408.2949,160.5703)" id="g312">
      <path id="path314" style="fill:none;stroke:#8d8d8d;stroke-width:0.75;stroke-linecap:butt;stroke-linejoin:miter;stroke-miterlimit:10;stroke-dasharray:none;stroke-opacity:1" d="m 0,0 -21.498,-32.682 -76.541,-35.689 9.889,24.511 z"/>
    </g>
    <g transform="translate(223.396,230.2305)" id="g316">
      <path id="path318" style="fill:#3c5ea9;fill-opacity:1;fill-rule:nonzero;stroke:none" d="M 0,0 30.532,-3.013 64.931,-19.78 78.263,-58.051 27.951,-36.553 Z"/>
    </g>
    <g transform="translate(223.396,230.2305)" id="g320">
      <path id="path322" style="fill:none;stroke:#8d8d8d;stroke-width:0.75;stroke-linecap:butt;stroke-linejoin:miter;stroke-miterlimit:10;stroke-dasharray:none;stroke-opacity:1" d="M 0,0 30.532,-3.013 64.931,-19.78 78.263,-58.051 27.951,-36.553 Z"/>
    </g>
    <g transform="translate(308.9658,197.9814)" id="g324">
      <path id="path326" style="fill:#3c5ea9;fill-opacity:1;fill-rule:nonzero;stroke:none" d="M 0,0 17.199,-7.312 V -33.54 l -8.17,3.867 z"/>
    </g>
    <g transform="translate(308.9658,197.9814)" id="g328">
      <path id="path330" style="fill:none;stroke:#8d8d8d;stroke-width:0.75;stroke-linecap:butt;stroke-linejoin:miter;stroke-miterlimit:10;stroke-dasharray:none;stroke-opacity:1" d="M 0,0 17.199,-7.312 V -33.54 l -8.17,3.867 z"/>
    </g>
    <g transform="translate(324.0156,151.9678)" id="g332">
      <path id="path334" style="fill:#3c5ea9;fill-opacity:1;fill-rule:nonzero;stroke:none" d="m 0,0 -10.319,-25.37 -36.548,12.901 -23.653,31.818 23.221,1.722 z"/>
    </g>
    <g transform="translate(324.0156,151.9678)" id="g336">
      <path id="path338" style="fill:none;stroke:#8d8d8d;stroke-width:0.75;stroke-linecap:butt;stroke-linejoin:miter;stroke-miterlimit:10;stroke-dasharray:none;stroke-opacity:1" d="m 0,0 -10.319,-25.37 -36.548,12.901 -23.653,31.818 23.221,1.722 z"/>
    </g>
    <g transform="translate(273.7036,119.7188)" id="g340">
      <path id="path342" style="fill:#3c5ea9;fill-opacity:1;fill-rule:nonzero;stroke:none" d="M 0,0 19.354,0.432 36.984,-5.162 30.105,-25.37 9.034,-14.191 Z"/>
    </g>
    <g transform="translate(273.7036,119.7188)" id="g344">
      <path id="path346" style="fill:none;stroke:#8d8d8d;stroke-width:0.75;stroke-linecap:butt;stroke-linejoin:miter;stroke-miterlimit:10;stroke-dasharray:none;stroke-opacity:1" d="M 0,0 19.354,0.432 36.984,-5.162 30.105,-25.37 9.034,-14.191 Z"/>
    </g>
    <g transform="translate(241.4541,25.9404)" id="g348">
      <path id="path350" style="fill:#ffffff;fill-opacity:1;fill-rule:nonzero;stroke:none" d="M 0,0 72.242,59.342 153.513,97.185 125.131,57.624 Z"/>
    </g>
    <g transform="translate(241.4541,25.9404)" id="g352">
      <path id="path354" style="fill:none;stroke:#8d8d8d;stroke-width:0.75;stroke-linecap:butt;stroke-linejoin:miter;stroke-miterlimit:10;stroke-dasharray:none;stroke-opacity:1" d="M 0,0 72.242,59.342 153.513,97.185 125.131,57.624 Z"/>
    </g>
    <g transform="translate(412.5986,130.0049)" id="g356">
      <path id="path358" style="fill:#ffffff;fill-opacity:1;fill-rule:nonzero;stroke:none" d="M 0,0 -23.221,-30.531 49.448,-7.738 68.797,26.66 Z"/>
    </g>
    <g transform="translate(412.5986,130.0049)" id="g360">
      <path id="path362" style="fill:none;stroke:#8d8d8d;stroke-width:0.75;stroke-linecap:butt;stroke-linejoin:miter;stroke-miterlimit:10;stroke-dasharray:none;stroke-opacity:1" d="M 0,0 -23.221,-30.531 49.448,-7.738 68.797,26.66 Z"/>
    </g>
    <g transform="translate(496.0186,158.8145)" id="g364">
      <path id="path366" style="fill:#ffffff;fill-opacity:1;fill-rule:nonzero;stroke:none" d="M 0,0 -18.062,-32.249 27.52,-20.639 53.321,11.179 28.81,11.61 Z"/>
    </g>
    <g transform="translate(496.0186,158.8145)" id="g368">
      <path id="path370" style="fill:none;stroke:#8d8d8d;stroke-width:0.75;stroke-linecap:butt;stroke-linejoin:miter;stroke-miterlimit:10;stroke-dasharray:none;stroke-opacity:1" d="M 0,0 -18.062,-32.249 27.52,-20.639 53.321,11.179 28.81,11.61 Z"/>
    </g>
    <g transform="translate(465.0557,106.7852)" id="g372">
      <path id="path374" style="fill:#3c5ea9;fill-opacity:1;fill-rule:nonzero;stroke:none" d="M 0,0 28.382,8.602 58.909,9.456 29.241,-20.64 -23.647,-29.241 Z"/>
    </g>
    <g transform="translate(465.0557,106.7852)" id="g376">
      <path id="path378" style="fill:none;stroke:#8d8d8d;stroke-width:0.75;stroke-linecap:butt;stroke-linejoin:miter;stroke-miterlimit:10;stroke-dasharray:none;stroke-opacity:1" d="M 0,0 28.382,8.602 58.909,9.456 29.241,-20.64 -23.647,-29.241 Z"/>
    </g>
    <g transform="translate(453.877,108.0752)" id="g380">
      <path id="path382" style="fill:#3c5ea9;fill-opacity:1;fill-rule:nonzero;stroke:none" d="m 0,0 -21.503,-28.382 -46.009,3.871 36.121,21.067 z"/>
    </g>
    <g transform="translate(453.877,108.0752)" id="g384">
      <path id="path386" style="fill:none;stroke:#8d8d8d;stroke-width:0.75;stroke-linecap:butt;stroke-linejoin:miter;stroke-miterlimit:10;stroke-dasharray:none;stroke-opacity:1" d="m 0,0 -21.503,-28.382 -46.009,3.871 36.121,21.067 z"/>
    </g>
    <g transform="translate(453.0186,72.3818)" id="g388">
      <path id="path390" style="fill:#3c5ea9;fill-opacity:1;fill-rule:nonzero;stroke:none" d="M 0,0 46.009,3.871 86.428,-31.818 30.1,-19.776 Z"/>
    </g>
    <g transform="translate(453.0186,72.3818)" id="g392">
      <path id="path394" style="fill:none;stroke:#8d8d8d;stroke-width:0.75;stroke-linecap:butt;stroke-linejoin:miter;stroke-miterlimit:10;stroke-dasharray:none;stroke-opacity:1" d="M 0,0 46.009,3.871 86.428,-31.818 30.1,-19.776 Z"/>
    </g>
  </g>
</svg>
